<svg width="22" height="23" viewBox="0 0 22 23" fill="none" xmlns="http://www.w3.org/2000/svg">
<path d="M12.1308 0.00141491C12.9335 -0.00180524 13.7361 0.00662871 14.5386 0.0267141L14.752 0.0347638C14.9984 0.0439635 15.2415 0.0554631 15.5351 0.0692626C16.7055 0.126761 17.504 0.319954 18.2047 0.603995C18.9307 0.896085 19.5422 1.29167 20.1538 1.93105C20.713 2.50558 21.1458 3.20054 21.422 3.96763C21.6937 4.70016 21.8785 5.53618 21.9335 6.75973C21.9467 7.06562 21.9577 7.32092 21.9665 7.57851L21.9731 7.8016C21.9927 8.64014 22.0011 9.47893 21.9984 10.3177L21.9995 11.1756V12.682C22.0022 13.5212 21.9938 14.3604 21.9742 15.1993L21.9676 15.4224C21.9588 15.68 21.9478 15.9341 21.9346 16.2412C21.8796 17.4647 21.6926 18.2996 21.422 19.0321C21.1467 19.8 20.7138 20.4956 20.1538 21.0698C19.6038 21.6544 18.9387 22.1068 18.2047 22.3958C17.504 22.6798 16.7055 22.873 15.5351 22.9305C15.2415 22.9443 14.9984 22.9558 14.752 22.965L14.5386 22.9719C13.7362 22.9923 12.9335 23.0011 12.1308 22.9983L11.3103 22.9995H9.87043C9.06776 23.0023 8.26509 22.9935 7.46265 22.973L7.24926 22.9661C6.98815 22.9562 6.72709 22.9447 6.4661 22.9316C5.29576 22.8741 4.4972 22.6786 3.79544 22.3958C3.06143 22.1075 2.39657 21.655 1.84744 21.0698C1.28762 20.4952 0.854437 19.7998 0.578105 19.0321C0.306419 18.2996 0.121628 17.4647 0.0666312 16.2412C0.054381 15.9683 0.0433815 15.6954 0.0336329 15.4224L0.0281334 15.1993C0.00785435 14.3604 -0.00131283 13.5212 0.000634668 12.682V10.3177C-0.00243524 9.47893 0.00563187 8.64015 0.0248335 7.8016L0.0325331 7.57851C0.0413326 7.32092 0.052332 7.06562 0.0655314 6.75973C0.120529 5.53503 0.305319 4.7013 0.577005 3.96763C0.853501 3.20017 1.28753 2.50539 1.84854 1.9322C2.3973 1.34658 3.06173 0.893293 3.79544 0.603995C4.4972 0.319954 5.29466 0.126761 6.4661 0.0692626L7.24926 0.0347638L7.46265 0.0290142C8.26471 0.00782362 9.06701 -0.00176042 9.86933 0.000265029L12.1308 0.00141491ZM11.0001 5.75122C10.2714 5.74044 9.54788 5.88119 8.87165 6.16528C8.19543 6.44937 7.57996 6.87114 7.061 7.40608C6.54205 7.94101 6.12996 8.57844 5.84869 9.28133C5.56742 9.98421 5.42258 10.7385 5.42258 11.5004C5.42258 12.2624 5.56742 13.0167 5.84869 13.7196C6.12996 14.4225 6.54205 15.0599 7.061 15.5948C7.57996 16.1298 8.19543 16.5515 8.87165 16.8356C9.54788 17.1197 10.2714 17.2605 11.0001 17.2497C12.4587 17.2497 13.8576 16.6439 14.889 15.5656C15.9204 14.4873 16.4998 13.0248 16.4998 11.4999C16.4998 9.97493 15.9204 8.51245 14.889 7.43415C13.8576 6.35585 12.4587 5.75122 11.0001 5.75122ZM11.0001 8.05114C11.4384 8.0427 11.874 8.12566 12.2813 8.29517C12.6886 8.46469 13.0595 8.71736 13.3724 9.03843C13.6853 9.35951 13.9338 9.74254 14.1035 10.1652C14.2732 10.5878 14.3606 11.0415 14.3607 11.4999C14.3608 11.9582 14.2735 12.412 14.1039 12.8347C13.9344 13.2573 13.686 13.6405 13.3732 13.9616C13.0604 14.2828 12.6896 14.5356 12.2823 14.7053C11.875 14.8749 11.4395 14.958 11.0012 14.9498C10.126 14.9498 9.28668 14.5863 8.66784 13.9393C8.049 13.2923 7.70134 12.4148 7.70134 11.4999C7.70134 10.5849 8.049 9.70742 8.66784 9.06044C9.28668 8.41346 10.126 8.04999 11.0012 8.04999L11.0001 8.05114ZM16.7748 4.02628C16.4199 4.04113 16.0843 4.19895 15.8383 4.46668C15.5922 4.73441 15.4548 5.0913 15.4548 5.46258C15.4548 5.83386 15.5922 6.19074 15.8383 6.45848C16.0843 6.72621 16.4199 6.88403 16.7748 6.89888C17.1394 6.89888 17.4891 6.74743 17.747 6.47786C18.0048 6.20829 18.1497 5.84266 18.1497 5.46143C18.1497 5.08019 18.0048 4.71457 17.747 4.445C17.4891 4.17542 17.1394 4.02398 16.7748 4.02398V4.02628Z" fill="white"/>
</svg>
